<svg width="15" height="14" viewBox="0 0 15 14" fill="none" xmlns="http://www.w3.org/2000/svg">
<path d="M14.0044 4.9474C13.7721 4.23608 14.0044 3.29844 13.573 2.71645C13.1416 2.13447 12.146 2.0698 11.5155 1.61715C10.9181 1.19682 10.5531 0.291511 9.82301 0.0651833C9.12611 -0.161145 8.26327 0.356176 7.5 0.356176C6.73673 0.356176 5.87389 -0.161145 5.17699 0.0651833C4.4469 0.291511 4.08186 1.19682 3.48451 1.61715C2.88717 2.03747 1.85841 2.13447 1.42699 2.71645C0.995575 3.29844 1.22788 4.23608 0.995575 4.9474C0.763274 5.62638 0 6.2407 0 7.01668C0 7.76033 0.763274 8.37465 0.995575 9.05364C1.22788 9.76495 0.995575 10.7026 1.42699 11.2846C1.85841 11.8666 2.85398 11.9312 3.48451 12.3839C4.08186 12.8042 4.4469 13.7095 5.17699 13.9359C5.87389 14.1622 6.73673 13.6449 7.5 13.6449C8.26327 13.6449 9.12611 14.1622 9.82301 13.9359C10.5531 13.7095 10.9181 12.8042 11.5155 12.3839C12.1128 11.9636 13.1084 11.8666 13.573 11.2846C14.0044 10.7026 13.7721 9.76495 14.0044 9.05364C14.2367 8.37465 15 7.76033 15 6.98435C15 6.2407 14.2367 5.62638 14.0044 4.9474ZM5.97345 9.86195L3.31858 6.3377L3.84956 5.94971L6.07301 8.89197L11.2168 4.39775L11.6482 4.88274L5.97345 9.86195Z" fill="#1877F2"/>
</svg>
